<svg aria-hidden="true" style="position: absolute; width: 0; height: 0; overflow: hidden;" version="1.1" xmlns="http://www.w3.org/2000/svg" xmlns:xlink="http://www.w3.org/1999/xlink">
<defs>
<symbol id="icon-bread" viewBox="0 0 32 32">
<path d="M26 23.2h-20c-2.159-0.001-3.909-1.751-3.909-3.91 0-0.94 0.332-1.802 0.884-2.477l-0.005 0.007c2.91-3.555 7.785-5.675 13.030-5.675s10.12 2.12 13.030 5.675c0.547 0.668 0.879 1.53 0.879 2.47 0 2.159-1.75 3.909-3.909 3.91h-0zM16 12.44c-4.86 0-9.36 1.945-12.030 5.205-0.37 0.438-0.596 1.010-0.596 1.634 0 0.408 0.096 0.794 0.267 1.135l-0.007-0.015c0.416 0.893 1.305 1.5 2.337 1.5 0.010 0 0.020-0 0.030-0h19.998c1.443-0.005 2.611-1.176 2.611-2.62 0-0.625-0.219-1.199-0.585-1.65l0.004 0.005c-2.67-3.25-7.17-5.195-12.030-5.195z"></path>
<path d="M12.335 17.97c-0.205-0-0.392-0.080-0.53-0.21l0 0c-1.32-1.219-2.153-2.95-2.18-4.875l-0-0.005c-0-0.003-0-0.007-0-0.010 0-0.432 0.349-0.782 0.78-0.785h0c0.004-0 0.010-0 0.015-0 0.431 0 0.78 0.349 0.78 0.78 0 0 0 0 0 0v0c0.021 1.478 0.659 2.802 1.666 3.732l0.004 0.003c0.156 0.145 0.254 0.351 0.254 0.58 0 0.207-0.079 0.395-0.209 0.535l0.001-0.001c-0.143 0.157-0.349 0.255-0.577 0.255-0.001 0-0.002 0-0.003 0h0z"></path>
<path d="M16.96 17.97c-0.205-0-0.392-0.080-0.53-0.21l0 0c-1.32-1.219-2.153-2.95-2.18-4.875l-0-0.005c-0-0.003-0-0.007-0-0.010 0-0.432 0.349-0.782 0.78-0.785h0c0 0 0 0 0 0 0.432 0 0.782 0.349 0.785 0.78v0c0.026 1.48 0.668 2.804 1.681 3.731l0.004 0.004c0.156 0.145 0.254 0.351 0.254 0.58 0 0.207-0.079 0.395-0.209 0.535l0-0.001c-0.143 0.157-0.349 0.255-0.577 0.255-0.003 0-0.006 0-0.009-0h0z"></path>
<path d="M21.59 17.97c-0.001 0-0.002 0-0.003 0-0.206 0-0.393-0.080-0.533-0.21l0 0c-1.32-1.219-2.153-2.95-2.18-4.875l-0-0.005c-0-0.003-0-0.007-0-0.010 0-0.432 0.349-0.782 0.78-0.785h0c0 0 0 0 0 0 0.432 0 0.782 0.349 0.785 0.78v0c0.021 1.478 0.659 2.802 1.666 3.732l0.004 0.003c0.156 0.145 0.254 0.351 0.254 0.58 0 0.434-0.35 0.786-0.783 0.79h-0z"></path>
<path d="M12.335 17.83c-0.001 0-0.001 0-0.002 0-0.169 0-0.323-0.065-0.439-0.17l0.001 0c-1.293-1.194-2.106-2.89-2.13-4.776l-0-0.004c-0-0.004-0-0.010-0-0.015 0-0.353 0.287-0.64 0.64-0.64 0 0 0 0 0 0v0c0 0 0 0 0 0 0.356 0 0.646 0.285 0.655 0.639v0.001c0.021 1.519 0.676 2.881 1.711 3.837l0.004 0.003c0.127 0.119 0.206 0.288 0.206 0.475 0 0.358-0.289 0.648-0.646 0.65h-0z"></path>
<path d="M16.96 17.83c-0.001 0-0.003 0-0.005 0-0.167 0-0.318-0.065-0.431-0.17l0 0c-1.295-1.193-2.11-2.889-2.135-4.776l-0-0.004c-0-0.003-0-0.007-0-0.010 0-0.354 0.286-0.642 0.64-0.645h0c0.002 0 0.003-0 0.005-0 0.353 0 0.64 0.287 0.64 0.64 0 0 0 0 0 0v0c0.021 1.519 0.676 2.881 1.711 3.837l0.004 0.003c0.127 0.119 0.206 0.288 0.206 0.475 0 0.358-0.289 0.648-0.646 0.65h-0z"></path>
<path d="M21.59 17.83c-0.002 0-0.004 0-0.006 0-0.168 0-0.321-0.065-0.435-0.17l0 0c-1.299-1.192-2.119-2.887-2.15-4.774l-0-0.006c-0-0.003-0-0.007-0-0.010 0-0.354 0.286-0.642 0.64-0.645h0c0 0 0 0 0 0 0.355 0 0.644 0.285 0.65 0.639v0.001c0.022 1.518 0.674 2.879 1.707 3.837l0.003 0.003c0.13 0.118 0.211 0.288 0.211 0.477 0 0.169-0.065 0.323-0.172 0.438l0-0c-0.112 0.124-0.271 0.204-0.449 0.21l-0.001 0z"></path>
</symbol>
<symbol id="icon-breads" viewBox="0 0 32 32">
<path d="M22.613 5.709l-0.009 0c-0.303-0.022-0.626-0.032-0.988-0.032-0.265 0-0.538 0.007-0.86 0.023-0.030 0.002-0.058 0.010-0.084 0.021-0.38-0.028-0.766-0.044-1.159-0.044-5.037 0-9.134 2.38-9.134 5.305 0 0.579 0.16 1.105 0.476 1.564 0.181 0.264 0.277 0.606 0.277 0.989v2.514c-1.466 0-2.862 0.194-4.15 0.574-3.073 0.908-4.982 2.721-4.982 4.732 0 2.62 3.075 3.948 9.139 3.948 0.181 0 0.357-0.001 0.535-0.004 0.476 0.62 1.223 1.023 2.063 1.023h13.657c1.436 0 2.604-1.17 2.604-2.609v-10.822c0.5-0.538 0.753-1.179 0.753-1.909-0-2.71-3.492-4.977-8.138-5.274zM11.139 24.803c-3.941 0-8.639-0.598-8.639-3.448 0-1.026 0.592-2.002 1.638-2.806-0.026 0.323-0.006 0.759 0.138 1.303 0.030 0.112 0.131 0.186 0.242 0.186 0.021 0 0.043-0.003 0.064-0.009 0.133-0.035 0.213-0.172 0.178-0.306-0.237-0.893-0.093-1.423-0.038-1.578 0.563-0.348 1.22-0.652 1.96-0.902-0.15 0.632-0.313 1.828 0.135 3.15 0.035 0.104 0.133 0.17 0.237 0.17 0.027 0 0.053-0.004 0.080-0.013 0.131-0.044 0.201-0.186 0.157-0.317-0.495-1.462-0.16-2.783-0.041-3.165 0.712-0.202 1.475-0.348 2.262-0.432-0.131 0.799-0.408 3.065 0.402 4.279 0.048 0.072 0.127 0.111 0.208 0.111 0.047 0 0.096-0.014 0.139-0.042 0.115-0.076 0.146-0.232 0.069-0.347-0.749-1.123-0.405-3.457-0.302-4.048 0.366-0.026 0.736-0.041 1.107-0.041v7.164c0 0.389 0.088 0.756 0.24 1.087-0.078 0-0.156 0-0.234 0.002zM15.839 25.823h-2.103c-1.16 0-2.104-0.946-2.104-2.109v-10.178c0-0.485-0.126-0.925-0.365-1.272-0.261-0.38-0.388-0.799-0.388-1.281 0-2.65 3.873-4.806 8.634-4.806s8.634 2.156 8.634 4.806c0 0.482-0.127 0.901-0.388 1.281-0.239 0.348-0.365 0.787-0.365 1.272v10.178c0 1.163-0.944 2.109-2.104 2.109h-9.451zM29.569 12.616c-0.047 0.047-0.073 0.11-0.073 0.176v10.922c0 1.163-0.944 2.109-2.104 2.109h-0.576c0.651-0.475 1.077-1.242 1.077-2.109v-10.178c0-0.383 0.096-0.725 0.277-0.989 0.316-0.459 0.476-0.986 0.476-1.564 0-1.977-1.873-3.704-4.641-4.617 3.643 0.583 6.244 2.445 6.244 4.617 0 0.636-0.223 1.17-0.681 1.633z"></path>
<path d="M16.645 14.328c0-0.413-0.337-0.75-0.75-0.75s-0.75 0.337-0.75 0.75 0.337 0.75 0.75 0.75 0.75-0.337 0.75-0.75zM15.646 14.328c0-0.138 0.112-0.25 0.25-0.25s0.25 0.112 0.25 0.25-0.112 0.25-0.25 0.25-0.25-0.112-0.25-0.25z"></path>
<path d="M14.146 9.078c-0.414 0-0.75 0.337-0.75 0.75s0.336 0.75 0.75 0.75 0.75-0.337 0.75-0.75-0.336-0.75-0.75-0.75zM14.146 10.078c-0.138 0-0.25-0.112-0.25-0.25s0.112-0.25 0.25-0.25 0.25 0.112 0.25 0.25-0.112 0.25-0.25 0.25z"></path>
<path d="M20.145 16.578c-0.413 0-0.75 0.337-0.75 0.75s0.337 0.75 0.75 0.75 0.75-0.337 0.75-0.75-0.337-0.75-0.75-0.75zM20.145 17.578c-0.138 0-0.25-0.112-0.25-0.25s0.112-0.25 0.25-0.25 0.25 0.112 0.25 0.25-0.112 0.25-0.25 0.25z"></path>
<path d="M25.895 16.328c0-0.413-0.337-0.75-0.75-0.75s-0.75 0.337-0.75 0.75 0.337 0.75 0.75 0.75 0.75-0.337 0.75-0.75zM25.145 16.578c-0.138 0-0.25-0.112-0.25-0.25s0.112-0.25 0.25-0.25 0.25 0.112 0.25 0.25-0.112 0.25-0.25 0.25z"></path>
<path d="M21.895 20.578c-0.413 0-0.75 0.337-0.75 0.75s0.337 0.75 0.75 0.75 0.75-0.337 0.75-0.75-0.337-0.75-0.75-0.75zM21.895 21.578c-0.138 0-0.25-0.112-0.25-0.25s0.112-0.25 0.25-0.25 0.25 0.112 0.25 0.25-0.112 0.25-0.25 0.25z"></path>
<path d="M16.145 20.578c-0.413 0-0.75 0.337-0.75 0.75s0.337 0.75 0.75 0.75 0.75-0.337 0.75-0.75-0.337-0.75-0.75-0.75zM16.145 21.578c-0.138 0-0.25-0.112-0.25-0.25s0.112-0.25 0.25-0.25 0.25 0.112 0.25 0.25-0.112 0.25-0.25 0.25z"></path>
<path d="M22.395 10.078c0-0.413-0.337-0.75-0.75-0.75s-0.75 0.337-0.75 0.75 0.337 0.75 0.75 0.75 0.75-0.337 0.75-0.75zM21.395 10.078c0-0.138 0.112-0.25 0.25-0.25s0.25 0.112 0.25 0.25-0.112 0.25-0.25 0.25-0.25-0.112-0.25-0.25z"></path>
</symbol>
<symbol id="icon-building" viewBox="0 0 32 32">
<path fill="#b0bec5" style="fill: var(--color1, #b0bec5)" d="M5 12h2v-2h-2v2zM13 10h2v-2h-2v2zM17 10h2v-2h-2v2zM21 10h2v-2h-2v2zM13 6h2v-2h-2v2zM17 6h2v-2h-2v2zM21 6h2v-2h-2v2zM13 18h2v-2h-2v2zM17 18h2v-2h-2v2zM21 18h2v-2h-2v2zM13 22h2v-2h-2v2zM21 22h2v-2h-2v2zM13 26h2v-2h-2v2zM21 26h2v-2h-2v2zM27 24h2v-2h-2v2zM27 18v2h2v-2h-2zM27 28h2v-2h-2v2zM13 14h2v-2h-2v2zM17 14h2v-2h-2v2zM21 14h2v-2h-2v2zM5 16h2v-2h-2v2zM5 20h2v-2h-2v2zM5 24h2v-2h-2v2zM5 28h2v-2h-2v2zM17 22h2v-2h-2v2z"></path>
<path fill="#546e7a" style="fill: var(--color2, #546e7a)" d="M31 30c0 1.105-0.895 2-2 2h-26c-1.105 0-2-0.895-2-2v-22c0-1.106 0.894-2 2-2h6v-4c0-1.105 0.895-2 2-2h14c1.105 0 2 0.894 2 2v12h2c1.105 0 2 0.895 2 2v14zM9 8h-6v22h6v-22zM25 2h-14v28h6v-6h2v6h6v-28zM29 16h-2v14h2v-14z"></path>
</symbol>
<symbol id="icon-buildings" viewBox="0 0 32 32">
<path fill="#60646b" style="fill: var(--color3, #60646b)" d="M29.675 28.225v-17.7l-9.65-2.775v20.475h-0.7v-25.725h-11.125v25.75h-0.65v-10.575h-6.025v10.575h-0.025v1.275h29v-1.275l-0.825-0.025zM25.4 11.85h2.775v3.1h-2.775v-3.1zM25.4 15.775h2.775v3.1h-2.775v-3.1zM25.4 20.025h2.775v3.1h-2.775v-3.1zM25.4 24.275h2.775v3.1h-2.775v-3.1zM21.15 11.85h2.775v3.1h-2.775v-3.1zM21.15 15.775h2.775v3.1h-2.775v-3.1zM21.15 20.025h2.775v3.1h-2.775v-3.1zM21.15 24.275h2.775v3.1h-2.775v-3.1zM4.925 18.65h1.8v1.875h-1.8v-1.875zM4.925 22.275h1.8v1.875h-1.8v-1.875zM4.925 25.825h1.8v1.875h-1.8v-1.875zM2.35 18.7h1.8v1.875h-1.8v-1.875zM2.35 22.3h1.8v1.875h-1.8v-1.875zM2.35 25.85h1.8v1.875h-1.8v-1.875zM14.75 4.525h2.775v2.775h-2.775v-2.775zM14.75 10.075h2.775v2.775h-2.775v-2.775zM14.75 15.725h2.775v2.775h-2.775v-2.775zM9.975 4.525h2.775v2.775h-2.775v-2.775zM9.975 10.075h2.775v2.775h-2.775v-2.775zM9.975 15.725h2.775v2.775h-2.775v-2.775zM10.95 20.575h5.55v7.675h-1.375v-6.475h-2.8v6.45h-1.4l0.025-7.65z"></path>
</symbol>
<symbol id="icon-coins" viewBox="0 0 32 32">
<path d="M31.994 11.2c-0.053-0.913-1.138-1.626-3.309-2.17 0.073-0.16 0.114-0.326 0.115-0.499v-3.731h-0.009c-0.191-3.108-12.928-3.2-14.391-3.2s-14.2 0.092-14.391 3.2h-0.009v3.733c0.003 1.013 1.31 1.806 3.256 2.397-0.027 0.089-0.043 0.179-0.048 0.27h-0.008v3.726c-2.096 0.54-3.143 1.243-3.195 2.14h-0.005v3.733c0.002 0.706 0.638 1.304 1.679 1.803-0.039 0.108-0.064 0.219-0.071 0.332h-0.008v3.733c0.004 1.774 3.998 2.875 8.436 3.389 0.033 0.006 0.062 0.020 0.097 0.020 0.010 0 0.019-0.005 0.029-0.006 0.855 0.097 1.725 0.172 2.585 0.226 0.018 0.002 0.034 0.011 0.053 0.011 0.010 0 0.018-0.005 0.028-0.006 1.092 0.066 2.167 0.1 3.172 0.1s2.080-0.034 3.172-0.1c0.010 0.001 0.018 0.006 0.028 0.006 0.019 0 0.035-0.009 0.053-0.011 0.86-0.054 1.73-0.129 2.585-0.226 0.010 0 0.019 0.005 0.029 0.005 0.035 0 0.065-0.013 0.097-0.020 4.438-0.514 8.431-1.616 8.436-3.39v-3.731h-0.009c-0.037-0.654-0.595-1.199-1.695-1.655 0.067-0.154 0.104-0.314 0.104-0.48v-3.486c1.915-0.589 3.197-1.377 3.2-2.381v-3.731h-0.006zM27.676 20.971l-0.182 0.159c-0.28 0.247-0.747 0.496-1.361 0.736v-2.543c0.634-0.221 1.174-0.466 1.6-0.734v2.207c0 0.055-0.020 0.114-0.058 0.174zM15.747 23.45c-0.078 0.002-0.156 0.003-0.235 0.005-0.19 0.004-0.386 0.005-0.579 0.006v-2.664c0.147-0.002 0.293-0.004 0.44-0.006 0.028-0.001 0.057-0.001 0.085-0.002 0.537-0.010 1.074-0.027 1.609-0.051v2.663c-0.114 0.006-0.229 0.011-0.345 0.016-0.321 0.014-0.645 0.025-0.975 0.033zM13.418 23.457c-0.244-0.004-0.487-0.010-0.729-0.018-0.030-0.001-0.060-0.002-0.090-0.003-0.291-0.010-0.579-0.022-0.866-0.036v-2.662c0.534 0.025 1.071 0.042 1.609 0.051 0.028 0.001 0.057 0.001 0.084 0.002 0.147 0.003 0.293 0.005 0.44 0.006v2.666c-0.103-0.001-0.207-0.001-0.31-0.003-0.047-0.001-0.092-0.003-0.139-0.003zM3.785 22.241c-0.018-0.005-0.034-0.010-0.052-0.015v-2.577c0.498 0.134 1.034 0.257 1.6 0.369v2.603c-0.49-0.104-0.941-0.213-1.353-0.325-0.065-0.019-0.132-0.036-0.196-0.055zM15.027 26.658c0.147 0.003 0.293 0.005 0.44 0.006v2.666c-0.737-0.007-1.449-0.028-2.133-0.062v-2.663c0.534 0.025 1.071 0.042 1.609 0.051 0.028 0 0.057 0.001 0.085 0.001zM17.058 26.656c0.537-0.010 1.074-0.027 1.609-0.051v2.663c-0.685 0.034-1.396 0.055-2.133 0.062v-2.666c0.147-0.002 0.293-0.004 0.44-0.006 0.028 0 0.057-0.001 0.085-0.001zM21.333 26.415v2.649c-0.513 0.054-1.046 0.101-1.6 0.14v-2.66c0.541-0.035 1.075-0.078 1.6-0.129zM22.4 26.3c0.55-0.066 1.084-0.141 1.6-0.225v2.619c-0.502 0.089-1.036 0.17-1.6 0.244v-2.638zM25.067 25.884c0.566-0.111 1.102-0.234 1.6-0.369v2.577c-0.475 0.137-1.010 0.27-1.6 0.395v-2.603zM6.933 25.884v2.603c-0.59-0.125-1.125-0.258-1.6-0.395v-2.577c0.498 0.134 1.034 0.258 1.6 0.369zM8 26.075c0.516 0.084 1.050 0.159 1.6 0.225v2.638c-0.564-0.074-1.098-0.156-1.6-0.244v-2.619zM10.667 26.415c0.525 0.051 1.059 0.094 1.6 0.13v2.66c-0.554-0.039-1.087-0.086-1.6-0.14v-2.649zM9.343 23.226c-0.054-0.005-0.108-0.011-0.162-0.017-0.038-0.004-0.076-0.009-0.115-0.012v-2.648c0.525 0.051 1.059 0.094 1.6 0.13v2.658c-0.448-0.032-0.891-0.068-1.323-0.11zM8 20.433v2.638c-0.564-0.074-1.098-0.156-1.6-0.244v-2.619c0.516 0.084 1.050 0.159 1.6 0.225zM18.489 23.311c-0.117 0.009-0.236 0.018-0.355 0.027v-2.66c0.541-0.036 1.075-0.078 1.6-0.13v2.649c-0.33 0.035-0.667 0.067-1.013 0.095-0.077 0.007-0.155 0.013-0.232 0.019zM20.8 23.071v-2.638c0.55-0.066 1.084-0.141 1.6-0.225v2.619c-0.502 0.089-1.036 0.171-1.6 0.244zM23.467 20.018c0.566-0.111 1.102-0.234 1.6-0.369v2.577c-0.475 0.137-1.010 0.27-1.6 0.395v-2.603zM16.173 17.581c-0.401-0.010-0.793-0.026-1.178-0.044-0.021-0.001-0.042-0.002-0.062-0.003v-2.663c0.534 0.025 1.071 0.042 1.609 0.051 0.028 0.001 0.057 0.001 0.084 0.002 0.147 0.003 0.293 0.005 0.44 0.006v2.663c-0.26-0.003-0.522-0.004-0.775-0.010-0.039-0.001-0.079-0.002-0.118-0.003zM3.733 9.959v-2.577c0.498 0.134 1.034 0.257 1.6 0.369v2.603c-0.066-0.014-0.133-0.028-0.197-0.042-0.284-0.062-0.561-0.127-0.825-0.196-0.202-0.052-0.393-0.105-0.578-0.157zM13.427 8.524c0.147 0.003 0.293 0.005 0.44 0.006v2.663c-0.718-0.007-1.431-0.026-2.133-0.061v-2.661c0.534 0.025 1.071 0.042 1.609 0.051 0.028 0 0.057 0.001 0.085 0.001zM15.458 8.523c0.537-0.010 1.074-0.027 1.609-0.051v2.661c-0.091 0.004-0.178 0.011-0.269 0.015-0.007 0.001-0.015 0.001-0.023 0.001-0.358 0.016-0.723 0.028-1.092 0.036-0.058 0.002-0.115 0.002-0.173 0.004-0.19 0.004-0.384 0.004-0.577 0.006v-2.664c0.147-0.002 0.293-0.004 0.44-0.006 0.028-0.001 0.057-0.001 0.085-0.002zM27.611 8.79l-0.015-0.003-0.194 0.151c-0.282 0.219-0.714 0.441-1.269 0.655v-2.537c0.634-0.221 1.174-0.466 1.6-0.734v2.207c0 0.081-0.043 0.169-0.122 0.261zM20.8 10.801v-2.635c0.55-0.066 1.084-0.141 1.6-0.225v2.614c-0.506 0.090-1.038 0.172-1.6 0.245zM23.467 10.35v-2.599c0.566-0.111 1.102-0.234 1.6-0.369v2.571c-0.478 0.139-1.016 0.272-1.6 0.397zM19.733 8.282v2.645c-0.515 0.054-1.049 0.102-1.6 0.141v-2.657c0.541-0.036 1.075-0.079 1.6-0.13zM9.067 10.928v-2.646c0.525 0.051 1.059 0.094 1.6 0.13v2.655c-0.543-0.039-1.078-0.083-1.6-0.138zM8 8.166v2.635c-0.106-0.014-0.215-0.025-0.32-0.039-0.068-0.010-0.133-0.020-0.201-0.029-0.308-0.044-0.61-0.092-0.905-0.141-0.059-0.010-0.116-0.021-0.174-0.031v-2.619c0.516 0.083 1.050 0.159 1.6 0.225zM13.734 17.461c-0.072-0.005-0.145-0.011-0.216-0.016-0.341-0.027-0.675-0.056-1-0.089-0.070-0.007-0.14-0.014-0.209-0.021-0.014-0.002-0.028-0.004-0.043-0.005v-2.649c0.525 0.051 1.059 0.094 1.6 0.13v2.658c-0.043-0.003-0.089-0.005-0.132-0.009zM10.211 17.062c-0.211-0.034-0.41-0.070-0.611-0.105v-2.615c0.516 0.084 1.050 0.159 1.6 0.225v2.638c-0.326-0.043-0.646-0.088-0.953-0.136-0.012-0.003-0.025-0.005-0.037-0.006zM8.533 14.151v2.599c-0.589-0.126-1.124-0.261-1.6-0.401v-2.567c0.498 0.134 1.034 0.258 1.6 0.369zM5.867 13.457v2.534c-0.838-0.324-1.379-0.654-1.555-0.949l-0.036-0.060c-0.003-0.017-0.009-0.034-0.009-0.051v-2.209c0.426 0.268 0.966 0.513 1.6 0.734zM18.658 14.923c0.537-0.010 1.074-0.027 1.609-0.051v2.66c-0.701 0.035-1.413 0.054-2.133 0.061v-2.662c0.147-0.002 0.293-0.004 0.44-0.006 0.028-0.001 0.057-0.001 0.085-0.002zM25.55 16.969c-0.234 0.041-0.47 0.081-0.713 0.117-0.139 0.021-0.282 0.042-0.425 0.062-0.135 0.019-0.275 0.036-0.412 0.053v-2.635c0.55-0.066 1.084-0.141 1.6-0.225v2.619c-0.017 0.003-0.034 0.006-0.050 0.009zM21.939 17.425c-0.199 0.017-0.404 0.027-0.606 0.042v-2.655c0.541-0.036 1.075-0.078 1.6-0.13v2.646c-0.31 0.033-0.619 0.065-0.938 0.092-0.019 0.002-0.037 0.004-0.057 0.005zM28.034 16.425c-0.266 0.074-0.547 0.143-0.834 0.211-0.133 0.031-0.268 0.062-0.407 0.092-0.041 0.009-0.085 0.017-0.126 0.026v-2.602c0.566-0.111 1.102-0.234 1.6-0.369v2.577c-0.077 0.021-0.154 0.043-0.233 0.065zM30.927 11.235c-0.049 0.362-0.87 0.844-2.335 1.297v0c-1.887 0.583-4.839 1.117-8.581 1.282-0.191 0.008-0.382 0.016-0.578 0.022-0.159 0.005-0.319 0.010-0.482 0.014-0.442 0.010-0.89 0.017-1.351 0.017s-0.91-0.007-1.351-0.017c-0.162-0.004-0.322-0.009-0.482-0.014-0.196-0.006-0.387-0.014-0.578-0.022-3.742-0.165-6.695-0.699-8.581-1.282v0c-1.453-0.449-2.273-0.927-2.333-1.287 0.003-0.010 0.003-0.019 0.009-0.031 0.036 0.009 0.077 0.017 0.114 0.026 0.209 0.050 0.422 0.098 0.64 0.143 1.060 0.228 2.234 0.415 3.485 0.558 0.004 0 0.007 0.002 0.011 0.002 0.001 0 0.002-0.001 0.003-0.001 0.852 0.097 1.737 0.173 2.644 0.227 0.007 0 0.013 0.004 0.020 0.004 0.004 0 0.006-0.002 0.010-0.002 0.653 0.038 1.315 0.067 1.985 0.082 0.41 0.010 0.813 0.015 1.205 0.015 0.28 0 0.567-0.003 0.857-0.009 3.875-0.060 7.467-0.521 9.966-1.235 0.115-0.033 0.228-0.066 0.339-0.1 0.068-0.021 0.137-0.041 0.203-0.062 0.193-0.062 0.378-0.125 0.557-0.191 0.031-0.012 0.060-0.023 0.091-0.035 0.151-0.057 0.296-0.116 0.435-0.177 0.040-0.018 0.081-0.035 0.12-0.052 0.148-0.067 0.291-0.135 0.423-0.206 0.060-0.031 0.111-0.064 0.167-0.096 0.064-0.037 0.128-0.074 0.187-0.112 0.034-0.021 0.074-0.042 0.106-0.063 2.388 0.518 3.017 1.084 3.078 1.305zM14.4 2.667c8.794 0 13.242 1.385 13.325 2.179-0.065 0.361-0.883 0.837-2.333 1.285v0c-1.887 0.583-4.839 1.117-8.581 1.282-0.191 0.008-0.382 0.016-0.578 0.022-0.159 0.005-0.319 0.010-0.482 0.014-0.442 0.010-0.89 0.017-1.351 0.017s-0.91-0.007-1.351-0.017c-0.162-0.004-0.322-0.009-0.482-0.014-0.196-0.006-0.387-0.014-0.578-0.022-3.742-0.165-6.695-0.699-8.581-1.282v0c-1.45-0.448-2.268-0.924-2.333-1.285 0.083-0.795 4.531-2.179 13.325-2.179zM1.067 8.531v-2.209c0.426 0.268 0.966 0.513 1.6 0.734v2.554c-1.037-0.389-1.599-0.779-1.6-1.079zM3.65 15.912c0.008 0.009 0.020 0.016 0.028 0.025 0.73 0.737 2.242 1.316 4.124 1.748 0.043 0.010 0.089 0.020 0.133 0.030 0.138 0.031 0.278 0.061 0.42 0.091 1.729 0.368 3.792 0.634 6.040 0.766 0.002 0 0.003 0.001 0.004 0.001s0.002-0.001 0.002-0.001c0.722 0.042 1.461 0.071 2.215 0.084 0.334 0.007 0.662 0.011 0.983 0.011 0.368 0 0.746-0.004 1.13-0.013 0.698-0.014 1.385-0.043 2.063-0.083 0.003 0 0.005 0.002 0.007 0.002 0.005 0 0.009-0.003 0.013-0.003 2.254-0.133 4.369-0.402 6.157-0.788-0.387 0.203-0.917 0.412-1.578 0.617v0c-1.992 0.615-5.173 1.176-9.217 1.306-0.12 0.004-0.238 0.008-0.36 0.011-0.131 0.003-0.263 0.005-0.396 0.008-0.335 0.005-0.673 0.010-1.020 0.010-0.462 0-0.91-0.007-1.351-0.017-0.162-0.004-0.322-0.009-0.482-0.014-0.196-0.006-0.387-0.014-0.578-0.022-3.742-0.165-6.695-0.699-8.581-1.282v0c-1.467-0.453-2.287-0.935-2.335-1.298 0.059-0.201 0.598-0.702 2.578-1.188zM1.067 20.798v-2.209c0.426 0.268 0.966 0.513 1.6 0.734v2.543l-0.305-0.118-0.006 0.006c-0.837-0.347-1.288-0.688-1.289-0.957zM2.667 26.665v-2.209c0.426 0.268 0.966 0.513 1.6 0.734v2.554c-1.037-0.389-1.599-0.779-1.6-1.079zM27.733 27.743v-2.553c0.634-0.221 1.174-0.466 1.6-0.734v2.207c-0.001 0.3-0.563 0.691-1.6 1.080zM29.326 22.974c-0.058 0.361-0.877 0.84-2.334 1.29v0c-1.887 0.583-4.839 1.117-8.581 1.282-0.191 0.008-0.382 0.016-0.578 0.022-0.159 0.005-0.319 0.010-0.482 0.014-0.442 0.010-0.89 0.017-1.351 0.017s-0.91-0.007-1.353-0.017c-0.161-0.004-0.319-0.009-0.477-0.014-0.197-0.006-0.389-0.014-0.581-0.022-3.742-0.165-6.694-0.699-8.581-1.282v0c-1.411-0.436-2.226-0.899-2.328-1.256 0.159 0.055 0.324 0.109 0.493 0.162 0.017 0.005 0.034 0.011 0.051 0.015 0.144 0.044 0.291 0.087 0.442 0.129 0.057 0.016 0.115 0.032 0.173 0.047 0.085 0.023 0.173 0.045 0.26 0.067 1.942 0.498 4.422 0.85 7.099 1.009 0.001 0 0.002 0.001 0.003 0.001s0.001-0.001 0.002-0.001c0.827 0.049 1.671 0.079 2.524 0.090 0.227 0.004 0.453 0.006 0.674 0.006 0.294 0 0.595-0.004 0.899-0.009 0.778-0.013 1.546-0.042 2.297-0.086 0.002 0 0.003 0.001 0.004 0.001 0.003 0 0.004-0.002 0.007-0.002 0.915-0.055 1.8-0.133 2.651-0.231 0.003 0 0.006 0.002 0.009 0.002 0.012 0 0.021-0.006 0.033-0.007 0.947-0.109 1.845-0.244 2.679-0.4 0.172-0.031 0.341-0.064 0.508-0.098 0.037-0.007 0.075-0.015 0.112-0.023 1.575-0.323 2.938-0.742 3.874-1.261 0.051-0.028 0.099-0.057 0.148-0.085 0.059-0.035 0.116-0.071 0.171-0.107 0.051-0.033 0.11-0.065 0.157-0.099 1.053 0.375 1.343 0.711 1.378 0.845zM29.333 16.010v-2.553c0.634-0.221 1.174-0.466 1.6-0.734v2.207c-0.001 0.3-0.563 0.691-1.6 1.080z"></path>
</symbol>
<symbol id="icon-fruits" viewBox="0 0 32 32">
<path d="M13.94 27.375c-0.886-0.001-1.735-0.16-2.52-0.451l0.050 0.016c-0.735 0.275-1.584 0.434-2.47 0.435h-0c-4 0-7.2-4.935-7.2-9-0-0.009-0-0.019-0-0.029 0-3.974 3.221-7.195 7.195-7.195 0.888 0 1.739 0.161 2.525 0.455l-0.050-0.016c0.737-0.279 1.59-0.441 2.48-0.441 3.974 0 7.195 3.221 7.195 7.195 0 0.004 0 0.008 0 0.012v-0.001c0 4.085-3.215 9.020-7.205 9.020zM11.47 25.595c0 0 0.001 0 0.001 0 0.088 0 0.172 0.017 0.249 0.047l-0.005-0.002c0.655 0.275 1.417 0.435 2.216 0.435 0.003 0 0.007 0 0.010 0h-0.001c3.125 0 5.905-4.315 5.905-7.72 0-0 0-0 0-0 0-3.261-2.644-5.905-5.905-5.905-0.802 0-1.567 0.16-2.264 0.45l0.039-0.014c-0.074 0.032-0.16 0.051-0.25 0.051s-0.176-0.019-0.254-0.052l0.004 0.002c-0.653-0.275-1.412-0.435-2.209-0.435-0.002 0-0.004 0-0.007 0h0c-3.259 0.006-5.899 2.646-5.905 5.904v0.001c0 3.405 2.78 7.72 5.905 7.72 0.005 0 0.011 0 0.016 0 0.797 0 1.556-0.16 2.247-0.449l-0.038 0.014c0.073-0.028 0.157-0.045 0.245-0.045h0z"></path>
<path d="M21.88 27.53c-1.187-0-2.316-0.249-3.339-0.696l0.054 0.021c-0.645-0.284-1.201-0.618-1.708-1.013l0.018 0.013c-0.145-0.12-0.237-0.3-0.237-0.502 0-0.359 0.291-0.65 0.65-0.65 0.139 0 0.269 0.044 0.374 0.119l-0.002-0.001c0.41 0.311 0.875 0.587 1.37 0.807l0.045 0.018c0.811 0.358 1.756 0.566 2.75 0.566 3.844 0 6.96-3.116 6.96-6.96 0-1.262-0.336-2.445-0.922-3.465l0.018 0.034c-0.465-0.764-0.74-1.689-0.74-2.677 0-0.227 0.014-0.45 0.042-0.669l-0.003 0.026c0.26-1.93-0.465-3.175-2.165-3.69-1.965-0.59-3.17 0.775-3.835 2.025-0.524 0.95-1.317 1.697-2.274 2.152l-0.031 0.013c-0.313 0.146-0.575 0.292-0.825 0.455l0.025-0.015c-0.108 0.084-0.246 0.134-0.396 0.134-0.359 0-0.65-0.291-0.65-0.65 0-0.248 0.139-0.463 0.342-0.573l0.003-0.002c0.267-0.175 0.578-0.35 0.902-0.504l0.048-0.021c0.732-0.342 1.32-0.891 1.7-1.571l0.010-0.019c1.245-2.34 3.195-3.31 5.355-2.655 2.3 0.695 3.42 2.56 3.075 5.105-0.017 0.139-0.027 0.299-0.027 0.462 0 0.753 0.211 1.457 0.577 2.055l-0.010-0.017c0.684 1.176 1.088 2.588 1.088 4.095 0 4.554-3.69 8.246-8.243 8.25h-0z"></path>
<path d="M11.465 12.465c-0.357-0.003-0.645-0.293-0.645-0.65 0 0 0 0 0-0v0c-0.006-1.442-0.993-2.652-2.328-2.995l-0.022-0.005c-0.284-0.074-0.49-0.328-0.49-0.63 0-0.359 0.291-0.65 0.65-0.65 0.057 0 0.112 0.007 0.165 0.021l-0.005-0.001c1.926 0.499 3.325 2.221 3.325 4.271 0 0.002 0 0.003 0 0.005v-0c-0.008 0.352-0.296 0.635-0.65 0.635-0 0-0 0-0 0v0z"></path>
<path d="M25.845 9.095c0 0 0 0-0 0-0.357 0-0.647-0.288-0.65-0.645v-0c0-0.002 0-0.004 0-0.006 0-2.006 1.37-3.691 3.225-4.172l0.030-0.007c0.082-0.040 0.179-0.064 0.281-0.064 0.359 0 0.65 0.291 0.65 0.65 0 0.345-0.269 0.628-0.609 0.649l-0.002 0c-1.314 0.338-2.27 1.512-2.27 2.91 0 0.014 0 0.028 0 0.042l-0-0.002c0 0 0 0 0 0 0 0.356-0.289 0.645-0.645 0.645-0.004 0-0.007-0-0.011-0h0.001z"></path>
<path d="M13.25 10.135c-0.009 0-0.020 0-0.031 0-0.684 0-1.335-0.142-1.925-0.397l0.031 0.012c-0.167-0.079-0.282-0.242-0.29-0.434l-0-0.001c0.141-2.986 2.596-5.354 5.604-5.354 0.704 0 1.378 0.13 1.999 0.367l-0.038-0.013c0.169 0.079 0.284 0.245 0.29 0.439l0 0.001c-0.052 1.856-1.026 3.474-2.479 4.417l-0.021 0.013c-0.883 0.593-1.97 0.947-3.139 0.95h-0.001zM12 9c0.387 0.12 0.832 0.189 1.294 0.189 0.957 0 1.845-0.297 2.576-0.803l-0.015 0.010c1.129-0.726 1.907-1.913 2.068-3.289l0.002-0.021c-0.387-0.12-0.832-0.189-1.294-0.189-0.957 0-1.845 0.297-2.576 0.803l0.015-0.010c-1.127 0.727-1.904 1.914-2.068 3.288l-0.002 0.022zM13.805 5.29v0z"></path>
<path d="M13.25 10.31c-0.005 0-0.011 0-0.017 0-0.716 0-1.398-0.147-2.016-0.413l0.033 0.013c-0.234-0.1-0.395-0.329-0.395-0.595 0-0 0-0 0-0v0c0.056-1.919 1.067-3.591 2.573-4.562l0.022-0.013c0.884-0.612 1.98-0.977 3.161-0.977 0.741 0 1.449 0.144 2.097 0.406l-0.038-0.013c0.234 0.1 0.395 0.329 0.395 0.595 0 0 0 0 0 0v-0c-0.049 1.914-1.049 3.585-2.543 4.562l-0.021 0.013c-0.913 0.616-2.039 0.984-3.25 0.985h-0zM12.185 8.865c0.33 0.089 0.71 0.141 1.101 0.141 0.924 0 1.782-0.286 2.489-0.775l-0.015 0.010c1.054-0.672 1.795-1.756 1.997-3.020l0.003-0.025c-0.329-0.088-0.706-0.139-1.095-0.139-0.927 0-1.787 0.288-2.495 0.778l0.015-0.010c-1.053 0.671-1.793 1.753-1.997 3.015l-0.003 0.025zM13.805 5.28v0z"></path>
</symbol>
<symbol id="icon-hote" viewBox="0 0 32 32">
<path d="M2.7 10.188v20.712h8.2v-20.712h-8.2zM4.619 30.044h-1.606v-1.387c0-0.394 0.25-0.712 0.563-0.712h0.487c0.313 0 0.563 0.319 0.563 0.712v1.387zM4.625 27.2h-1.606v-1.387c0-0.394 0.25-0.712 0.563-0.712h0.481c0.313 0 0.563 0.319 0.563 0.712v1.387zM4.631 24.356h-1.606v-1.387c0-0.394 0.25-0.712 0.563-0.712h0.487c0.313 0 0.563 0.319 0.563 0.712v1.387zM4.638 21.512h-1.606v-1.387c0-0.394 0.25-0.712 0.563-0.712h0.487c0.313 0 0.563 0.319 0.563 0.712v1.387zM4.644 18.669h-1.606v-1.387c0-0.394 0.25-0.712 0.563-0.712h0.487c0.313 0 0.563 0.319 0.563 0.712v1.387zM4.65 15.825h-1.606v-1.387c0-0.394 0.25-0.713 0.563-0.713h0.487c0.313 0 0.563 0.319 0.563 0.713v1.387zM4.656 12.981h-1.606v-1.387c0-0.394 0.25-0.713 0.563-0.713h0.487c0.313 0 0.563 0.319 0.563 0.713v1.387zM6.588 30.044h-1.606v-1.387c0-0.394 0.25-0.712 0.563-0.712h0.487c0.313 0 0.563 0.319 0.563 0.712v1.387zM6.594 27.2h-1.606v-1.387c0-0.394 0.25-0.712 0.563-0.712h0.487c0.313 0 0.563 0.319 0.563 0.712v1.387zM6.6 24.356h-1.606v-1.387c0-0.394 0.25-0.712 0.563-0.712h0.487c0.313 0 0.563 0.319 0.563 0.712v1.387zM6.606 21.512h-1.606v-1.387c0-0.394 0.25-0.712 0.563-0.712h0.487c0.313 0 0.563 0.319 0.563 0.712v1.387zM6.612 18.669h-1.606v-1.387c0-0.394 0.25-0.712 0.563-0.712h0.487c0.313 0 0.563 0.319 0.563 0.712v1.387zM6.619 15.825h-1.606v-1.387c0-0.394 0.25-0.713 0.563-0.713h0.487c0.313 0 0.563 0.319 0.563 0.713v1.387zM6.625 12.981h-1.606v-1.387c0-0.394 0.25-0.713 0.563-0.713h0.487c0.313 0 0.563 0.319 0.563 0.713v1.387zM8.556 30.044h-1.606v-1.387c0-0.394 0.25-0.712 0.563-0.712h0.487c0.313 0 0.563 0.319 0.563 0.712v1.387zM8.563 27.2h-1.606v-1.387c0-0.394 0.25-0.712 0.563-0.712h0.487c0.313 0 0.563 0.319 0.563 0.712v1.387zM8.569 24.356h-1.606v-1.387c0-0.394 0.25-0.712 0.563-0.712h0.487c0.313 0 0.563 0.319 0.563 0.712v1.387zM8.575 21.512h-1.606v-1.387c0-0.394 0.25-0.712 0.563-0.712h0.487c0.313 0 0.563 0.319 0.563 0.712v1.387zM8.581 18.669h-1.606v-1.387c0-0.394 0.25-0.712 0.563-0.712h0.487c0.313 0 0.563 0.319 0.563 0.712v1.387zM8.588 15.825h-1.606v-1.387c0-0.394 0.25-0.713 0.563-0.713h0.487c0.313 0 0.563 0.319 0.563 0.713v1.387zM8.594 12.981h-1.606v-1.387c0-0.394 0.25-0.713 0.563-0.713h0.487c0.313 0 0.563 0.319 0.563 0.713v1.387zM10.519 30.044h-1.606v-1.387c0-0.394 0.25-0.712 0.563-0.712h0.488c0.313 0 0.563 0.319 0.563 0.712v1.387zM10.525 27.2h-1.606v-1.387c0-0.394 0.25-0.712 0.563-0.712h0.488c0.313 0 0.563 0.319 0.563 0.712v1.387zM10.537 24.356h-1.606v-1.387c0-0.394 0.25-0.712 0.563-0.712h0.488c0.313 0 0.563 0.319 0.563 0.712v1.387zM10.544 21.512h-1.606v-1.387c0-0.394 0.25-0.712 0.563-0.712h0.488c0.313 0 0.563 0.319 0.563 0.712v1.387zM10.55 18.669h-1.606v-1.387c0-0.394 0.25-0.712 0.563-0.712h0.488c0.313 0 0.563 0.319 0.563 0.712v1.387zM10.556 15.825h-1.606v-1.387c0-0.394 0.25-0.713 0.563-0.713h0.488c0.313 0 0.563 0.319 0.563 0.713v1.387zM10.563 12.981h-1.606v-1.387c0-0.394 0.25-0.713 0.563-0.713h0.488c0.313 0 0.563 0.319 0.563 0.713v1.387z"></path>
<path d="M21.012 10.188v20.712h8.2v-20.712h-8.2zM22.931 30.044h-1.606v-1.387c0-0.394 0.25-0.712 0.563-0.712h0.488c0.313 0 0.563 0.319 0.563 0.712v1.387zM22.938 27.2h-1.606v-1.387c0-0.394 0.25-0.712 0.563-0.712h0.488c0.313 0 0.563 0.319 0.563 0.712v1.387zM22.944 24.356h-1.606v-1.387c0-0.394 0.25-0.712 0.563-0.712h0.488c0.313 0 0.563 0.319 0.563 0.712v1.387zM22.95 21.512h-1.606v-1.387c0-0.394 0.25-0.712 0.563-0.712h0.488c0.313 0 0.563 0.319 0.563 0.712v1.387zM22.956 18.669h-1.606v-1.387c0-0.394 0.25-0.712 0.563-0.712h0.488c0.313 0 0.563 0.319 0.563 0.712v1.387zM22.962 15.825h-1.606v-1.387c0-0.394 0.25-0.713 0.563-0.713h0.488c0.313 0 0.563 0.319 0.563 0.713v1.387zM22.969 12.981h-1.606v-1.387c0-0.394 0.25-0.713 0.563-0.713h0.488c0.313 0 0.563 0.319 0.563 0.713v1.387zM24.894 30.044h-1.606v-1.387c0-0.394 0.25-0.712 0.563-0.712h0.488c0.313 0 0.563 0.319 0.563 0.712v1.387zM24.9 27.2h-1.606v-1.387c0-0.394 0.25-0.712 0.563-0.712h0.488c0.313 0 0.563 0.319 0.563 0.712v1.387zM24.913 24.356h-1.606v-1.387c0-0.394 0.25-0.712 0.563-0.712h0.488c0.313 0 0.563 0.319 0.563 0.712v1.387zM24.919 21.512h-1.606v-1.387c0-0.394 0.25-0.712 0.563-0.712h0.488c0.313 0 0.563 0.319 0.563 0.712v1.387zM24.925 18.669h-1.606v-1.387c0-0.394 0.25-0.712 0.563-0.712h0.488c0.313 0 0.563 0.319 0.563 0.712v1.387zM24.931 15.825h-1.606v-1.387c0-0.394 0.25-0.713 0.563-0.713h0.488c0.313 0 0.563 0.319 0.563 0.713v1.387zM24.938 12.981h-1.606v-1.387c0-0.394 0.25-0.713 0.563-0.713h0.488c0.313 0 0.563 0.319 0.563 0.713v1.387zM26.863 30.044h-1.606v-1.387c0-0.394 0.25-0.712 0.563-0.712h0.488c0.313 0 0.563 0.319 0.563 0.712v1.387zM26.869 27.2h-1.606v-1.387c0-0.394 0.25-0.712 0.563-0.712h0.488c0.313 0 0.563 0.319 0.563 0.712v1.387zM26.875 24.356h-1.606v-1.387c0-0.394 0.25-0.712 0.563-0.712h0.488c0.313 0 0.563 0.319 0.563 0.712v1.387zM26.887 21.512h-1.606v-1.387c0-0.394 0.25-0.712 0.563-0.712h0.488c0.313 0 0.563 0.319 0.563 0.712v1.387zM26.894 18.669h-1.606v-1.387c0-0.394 0.25-0.712 0.563-0.712h0.488c0.313 0 0.563 0.319 0.563 0.712v1.387zM26.9 15.825h-1.606v-1.387c0-0.394 0.25-0.713 0.563-0.713h0.488c0.313 0 0.563 0.319 0.563 0.713v1.387zM26.906 12.981h-1.606v-1.387c0-0.394 0.25-0.713 0.563-0.713h0.488c0.313 0 0.563 0.319 0.563 0.713v1.387zM28.831 30.044h-1.606v-1.387c0-0.394 0.25-0.712 0.563-0.712h0.488c0.313 0 0.563 0.319 0.563 0.712v1.387zM28.837 27.2h-1.606v-1.387c0-0.394 0.25-0.712 0.563-0.712h0.488c0.313 0 0.563 0.319 0.563 0.712v1.387zM28.844 24.356h-1.606v-1.387c0-0.394 0.25-0.712 0.563-0.712h0.488c0.313 0 0.563 0.319 0.563 0.712v1.387zM28.85 21.512h-1.606v-1.387c0-0.394 0.25-0.712 0.563-0.712h0.488c0.313 0 0.563 0.319 0.563 0.712v1.387zM28.856 18.669h-1.606v-1.387c0-0.394 0.25-0.712 0.563-0.712h0.488c0.313 0 0.563 0.319 0.563 0.712v1.387zM28.869 15.825h-1.606v-1.387c0-0.394 0.25-0.713 0.563-0.713h0.488c0.313 0 0.563 0.319 0.563 0.713v1.387zM28.875 12.981h-1.606v-1.387c0-0.394 0.25-0.713 0.563-0.713h0.488c0.313 0 0.563 0.319 0.563 0.713v1.387z"></path>
<path d="M10.9 22.819v8.087h10.106v-8.087h-10.106zM12.775 30.387h-1.494v-0.994h1.494v0.994zM12.775 28.856h-1.494v-0.994h1.494v0.994zM12.775 27.325h-1.494v-0.994h1.494v0.994zM12.775 25.794h-1.494v-0.994h1.494v0.994zM12.775 24.262h-1.494v-0.994h1.494v0.994zM14.738 30.387h-1.494v-0.994h1.494v0.994zM14.738 28.856h-1.494v-0.994h1.494v0.994zM14.738 27.325h-1.494v-0.994h1.494v0.994zM14.738 25.794h-1.494v-0.994h1.494v0.994zM14.738 24.262h-1.494v-0.994h1.494v0.994zM16.694 30.387h-1.494v-0.994h1.494v0.994zM16.694 28.856h-1.494v-0.994h1.494v0.994zM16.694 27.325h-1.494v-0.994h1.494v0.994zM16.694 25.794h-1.494v-0.994h1.494v0.994zM16.694 24.262h-1.494v-0.994h1.494v0.994zM18.65 30.387h-1.494v-0.994h1.494v0.994zM18.65 28.856h-1.494v-0.994h1.494v0.994zM18.65 27.325h-1.494v-0.994h1.494v0.994zM18.65 25.794h-1.494v-0.994h1.494v0.994zM18.65 24.262h-1.494v-0.994h1.494v0.994zM20.606 30.387h-1.494v-0.994h1.494v0.994zM20.606 28.856h-1.494v-0.994h1.494v0.994zM20.606 27.325h-1.494v-0.994h1.494v0.994zM20.606 25.794h-1.494v-0.994h1.494v0.994zM20.606 24.262h-1.494v-0.994h1.494v0.994z"></path>
<path d="M10.9 5.969v16.769h10.106v-16.769h-10.106zM20.606 22.206h-9.306v-0.519h9.306v0.519zM20.606 21.038h-9.306v-0.519h9.306v0.519zM20.606 19.869h-9.306v-0.519h9.306v0.519zM20.606 18.694h-9.306v-0.519h9.306v0.519zM20.606 17.525h-9.306v-0.519h9.306v0.519zM20.606 16.356h-9.306v-0.519h9.306v0.519zM20.606 15.188h-9.306v-0.519h9.306v0.519zM20.606 14.012h-9.306v-0.512h9.306v0.512zM20.606 12.844h-9.306v-0.519h9.306v0.519zM20.606 11.675h-9.306v-0.519h9.306v0.519zM20.606 10.506h-9.306v-0.519h9.306v0.519zM20.606 9.331h-9.306v-0.519h9.306v0.519zM20.606 8.162h-9.306v-0.519h9.306v0.519zM20.606 6.994h-9.306v-0.519h9.306v0.519z"></path>
<path d="M10.75 4.781l-8.050 1.987v3.256h8.050z"></path>
<path d="M2.6 6.175l8.15-1.513v0.169l-8.050 1.756z"></path>
<path d="M21.131 4.8l8.050 1.987v3.256h-8.050z"></path>
<path d="M29.181 6.181l-8.050-1.5v0.175l8.050 1.712z"></path>
<path d="M14.85 2.263c-0.425 0-0.637 0.394-0.637 0.825 0 0.425 0.231 0.8 0.631 0.8 0.406 0 0.637-0.375 0.637-0.825 0-0.388-0.206-0.8-0.631-0.8z"></path>
<path d="M10.9 0.375v5.469h9.925v-5.469h-9.925zM13.613 4.069h-0.256v-0.931h-0.956v0.931h-0.256v-1.981h0.256v0.831h0.956v-0.831h0.256v1.981zM14.831 4.1c-0.525 0-0.887-0.406-0.887-1.006 0-0.631 0.394-1.038 0.919-1.038 0.544 0 0.887 0.413 0.887 1 0 0.681-0.412 1.044-0.919 1.044zM17.25 2.3h-0.606v1.763h-0.256v-1.763h-0.6v-0.219h1.463v0.219zM18.581 4.069h-1.113v-1.981h1.069v0.212h-0.813v0.625h0.769v0.212h-0.769v0.712h0.856v0.219zM20.019 4.069h-1.1v-1.981h0.256v1.769h0.844v0.213z"></path>
<path d="M2.063 31.031h27.881v0.594h-27.881v-0.594z"></path>
</symbol>
<symbol id="icon-leaf" viewBox="0 0 32 32">
<path d="M23.25 5.824c-0.060-0.099-0.166-0.164-0.289-0.164-0.013 0-0.025 0.001-0.038 0.002l0.002-0c-0.133 0.014-0.242 0.102-0.285 0.222l-0.001 0.002c-0.040 0.109-1.012 2.688-5.128 3.261-6.111 0.848-9.856 3.754-10.273 7.974-0.296 3 1.375 4.617 2.112 5.176-0.521 2.188 0.049 3.791 0.063 3.823 0.052 0.125 0.173 0.212 0.315 0.212 0.188 0 0.34-0.152 0.34-0.34 0-0.039-0.007-0.077-0.019-0.112l0.001 0.002c-0.042-0.113-0.504-1.438-0.113-3.267 1.168 0.368 2.512 0.58 3.904 0.58 0 0 0 0 0.001 0h-0c2.625 0 6.010-0.804 8.569-4.204 4.813-6.399 0.877-13.101 0.839-13.168zM21.862 18.582c-4.237 5.63-10.714 3.73-11.758 3.376 0.259-0.829 0.704-1.735 1.429-2.664h5.826c0.188 0 0.34-0.152 0.34-0.34s-0.152-0.34-0.34-0.34h-5.25c0.963-1.039 2.301-2.089 4.154-3.076 0.47-0.25 0.906-0.506 1.313-0.762h4.088c0.188 0 0.34-0.152 0.34-0.34s-0.152-0.34-0.34-0.34h-3.091c2.089-1.523 3.047-2.897 3.098-2.973 0.037-0.054 0.059-0.12 0.059-0.192 0-0.188-0.152-0.341-0.341-0.341-0.116 0-0.219 0.058-0.28 0.147l-0.001 0.001c-0.012 0.019-1.082 1.549-3.411 3.139v-1.734c0-0.188-0.152-0.34-0.34-0.34s-0.34 0.152-0.34 0.34v0 2.174c-0.337 0.209-0.691 0.417-1.072 0.62-2.045 1.089-3.489 2.268-4.51 3.438v-3.137c0-0.188-0.152-0.34-0.34-0.34s-0.34 0.152-0.34 0.34v0 3.716c0.001 0.071 0.025 0.135 0.063 0.188l-0.001-0.001c-0.518 0.702-0.948 1.511-1.25 2.38l-0.019 0.064c-0.691-0.596-1.879-1.989-1.641-4.4 0.384-3.883 3.916-6.568 9.688-7.369 3.302-0.457 4.778-2.139 5.356-3.074 0.794 1.691 2.663 6.857-1.089 11.84z"></path>
</symbol>
<symbol id="icon-restaurant" viewBox="0 0 32 32">
<path stroke-linejoin="round" stroke-linecap="butt" stroke-miterlimit="4" stroke-width="1" d="M1 29h30v2h-30v-2z"></path>
<path stroke-linejoin="round" stroke-linecap="butt" stroke-miterlimit="4" stroke-width="1" d="M30 12.5v16.5"></path>
<path stroke-linejoin="round" stroke-linecap="butt" stroke-miterlimit="4" stroke-width="1" d="M2 29v-16.5"></path>
<path stroke-linejoin="round" stroke-linecap="butt" stroke-miterlimit="4" stroke-width="1" d="M1 6h5v4.5c0 1.381-1.119 2.5-2.5 2.5v0 0c-1.381 0-2.5-1.119-2.5-2.5v0-4.5z"></path>
<path stroke-linejoin="round" stroke-linecap="butt" stroke-miterlimit="4" stroke-width="1" d="M11 8.795v1.705c0 1.381-1.119 2.5-2.5 2.5v0 0c-1.381 0-2.5-1.119-2.5-2.5v0-4.5h4.525"></path>
<path stroke-linejoin="round" stroke-linecap="butt" stroke-miterlimit="4" stroke-width="1" d="M15.5 12c-0.461 0.61-1.185 1-2 1v0 0c-1.381 0-2.5-1.119-2.5-2.5v0-1.705"></path>
<path stroke-linejoin="round" stroke-linecap="butt" stroke-miterlimit="4" stroke-width="1" d="M21 8.795v1.705c0 1.381-1.119 2.5-2.5 2.5v0 0c-0.815 0-1.539-0.39-1.995-0.994l-0.005-0.006"></path>
<path stroke-linejoin="round" stroke-linecap="butt" stroke-miterlimit="4" stroke-width="1" d="M21.5 6h4.5v4.5c0 1.381-1.119 2.5-2.5 2.5v0 0c-1.381 0-2.5-1.119-2.5-2.5v0-1.705"></path>
<path stroke-linejoin="round" stroke-linecap="butt" stroke-miterlimit="4" stroke-width="1" d="M26 6h5v4.5c0 1.381-1.119 2.5-2.5 2.5v0 0c-1.381 0-2.5-1.119-2.5-2.5v0-4.5z"></path>
<path stroke-linejoin="round" stroke-linecap="butt" stroke-miterlimit="4" stroke-width="1" d="M21.5 6.5c0 3.038-2.462 5.5-5.5 5.5s-5.5-2.462-5.5-5.5c0-3.038 2.462-5.5 5.5-5.5s5.5 2.462 5.5 5.5z"></path>
<path stroke-linejoin="round" stroke-linecap="butt" stroke-miterlimit="4" stroke-width="1" d="M13.5 4h4v4c0 0.552-0.448 1-1 1v0h-2c-0.552 0-1-0.448-1-1v0-4z"></path>
<path stroke-linejoin="round" stroke-linecap="butt" stroke-miterlimit="4" stroke-width="1" d="M17.5 5h0.5c0.828 0 1.5 0.672 1.5 1.5v0 0c0 0.828-0.672 1.5-1.5 1.5v0h-0.5"></path>
<path stroke-linejoin="round" stroke-linecap="butt" stroke-miterlimit="4" stroke-width="1" d="M4 15h14v11h-14v-11z"></path>
<path stroke-linejoin="round" stroke-linecap="butt" stroke-miterlimit="4" stroke-width="1" d="M21 29v-10h7v10"></path>
<path stroke-linejoin="round" stroke-linecap="butt" stroke-miterlimit="4" stroke-width="1" d="M4 23h14"></path>
<path stroke-linejoin="round" stroke-linecap="butt" stroke-miterlimit="4" stroke-width="1" d="M6 20.5l3-3"></path>
<path stroke-linejoin="round" stroke-linecap="butt" stroke-miterlimit="4" stroke-width="1" d="M9.5 20.5l3-3"></path>
<path stroke-linejoin="round" stroke-linecap="butt" stroke-miterlimit="4" stroke-width="1" d="M13 20.5l3-3"></path>
<path stroke-linejoin="round" stroke-linecap="butt" stroke-miterlimit="4" stroke-width="1" d="M23 22.5v3"></path>
<path stroke-linejoin="round" stroke-linecap="butt" stroke-miterlimit="4" stroke-width="1" d="M22 15h5v2h-5v-2z"></path>
</symbol>
<symbol id="icon-restaurant-2" viewBox="0 0 32 32">
<path d="M29.347 25.357h-3.44v-9.16c-0.005-0.187-0.157-0.337-0.345-0.337s-0.34 0.15-0.345 0.336v4h-4.13c-0.824 0.003-1.49 0.672-1.49 1.496 0 0.001 0 0.003 0 0.004v-0 3.66h-2.25v-6.17h4.62c0.001 0 0.002 0 0.003 0 0.186 0 0.337-0.151 0.337-0.337 0-0.001 0-0.002 0-0.003v0-1.15c0-0.001 0-0.002 0-0.003 0-0.186-0.151-0.337-0.337-0.337-0.001 0-0.002 0-0.003 0h-11.93c-0.001-0-0.003-0-0.004-0-0.189 0-0.343 0.152-0.346 0.34v1.15c0.003 0.189 0.157 0.34 0.346 0.34 0.001 0 0.003 0 0.004-0h4.62v6.17h-2.25v-3.66c0-0.001 0-0.003 0-0.004 0-0.824-0.666-1.493-1.49-1.496h-4.14v-4c0-0.188-0.152-0.34-0.34-0.34s-0.34 0.152-0.34 0.34v9.16h-3.44c-0.188 0-0.34 0.152-0.34 0.34s0.152 0.34 0.34 0.34h26.69c0.188 0 0.34-0.152 0.34-0.34s-0.152-0.34-0.34-0.34v0zM6.777 20.887h4.14c0.32 0.001 0.596 0.187 0.728 0.455l0.002 0.005h-4.87zM11.727 25.357h-4.95v-3.32h4.95zM10.377 18.507v-0.47h11.25v0.47zM16.667 25.357h-1.33v-6.17h1.33zM25.217 25.357h-4.94v-3.32h4.94zM25.217 21.347h-4.86c0.132-0.274 0.407-0.46 0.726-0.46 0.001 0 0.003 0 0.004 0h4.13z"></path>
<path d="M29.677 10.807c-0.001-0.056-0.020-0.108-0.051-0.151l0.001 0.001c-0.010-0.020-0.010-0.040-0.020-0.050l-3.87-4.52c-0.062-0.074-0.154-0.12-0.258-0.12-0.001 0-0.002 0-0.002 0h-18.95c-0.003-0-0.006-0-0.009-0-0.101 0-0.192 0.047-0.251 0.12l-0 0.001-3.87 4.52c-0.020 0.010-0.010 0.030-0.020 0.050-0.029 0.043-0.050 0.093-0.060 0.148l-0 0.002c-0.005 0.005-0.009 0.012-0.010 0.020l-0 0 0.010 0.010c-0.006 0-0.010 0.004-0.010 0.010v0c0.004 1.42 1.157 2.57 2.578 2.57 0.001 0 0.002 0 0.002 0h-0c0.956-0.001 1.788-0.528 2.223-1.307l0.007-0.013c0.444 0.793 1.279 1.32 2.237 1.32 0.962 0 1.8-0.531 2.236-1.317l0.007-0.013c0.445 0.787 1.276 1.31 2.229 1.31 0.913 0 1.713-0.479 2.164-1.199l0.006-0.011c0.458 0.731 1.26 1.21 2.173 1.21 0.958 0 1.793-0.527 2.231-1.307l0.007-0.013c0.448 0.791 1.282 1.317 2.24 1.32h0c0.956-0.001 1.788-0.528 2.223-1.307l0.007-0.013c0.447 0.793 1.284 1.32 2.244 1.32 1.408 0 2.551-1.134 2.566-2.539v-0.031c-0.001-0.008-0.005-0.015-0.010-0.020v0zM15.597 6.667v3.84h-3.54l1.21-3.84zM4.887 12.717c-0.914-0.002-1.676-0.654-1.848-1.518l-0.002-0.012h3.71c-0.178 0.877-0.943 1.529-1.86 1.53h-0zM6.937 10.507h-3.54l3.28-3.84h2.76zM9.357 12.717c-0.917-0.002-1.681-0.653-1.858-1.518l-0.002-0.012h3.72c-0.178 0.877-0.943 1.529-1.86 1.53h-0zM11.337 10.507h-3.59l2.51-3.84h2.3zM13.827 12.717c-0.917-0.002-1.681-0.653-1.858-1.518l-0.002-0.012h3.67c-0 0.006-0 0.013-0 0.020 0 0.035 0.004 0.070 0.011 0.103l-0.001-0.003c-0.218 0.816-0.95 1.407-1.82 1.41h-0zM16.397 6.647h2.33l1.22 3.86h-3.55zM18.177 12.717c-0.873-0.002-1.607-0.593-1.827-1.397l-0.003-0.013c0.010-0.040 0.010-0.080 0.020-0.12h3.67c-0.178 0.877-0.943 1.529-1.86 1.53h-0zM19.447 6.647h2.3l2.51 3.86h-3.59zM22.647 12.717c-0.917-0.001-1.682-0.653-1.858-1.518l-0.002-0.012h3.71c-0.171 0.877-0.933 1.53-1.847 1.53-0.001 0-0.002 0-0.003 0h0zM22.557 6.647h2.76l3.3 3.86h-3.54zM27.117 12.717c-0.917-0.001-1.682-0.653-1.858-1.518l-0.002-0.012h3.71c-0.174 0.876-0.936 1.528-1.85 1.53h-0z"></path>
</symbol>
<symbol id="icon-restaurant-open" viewBox="0 0 32 32">
<path d="M12.5 23v-8c0-0.276 0.224-0.5 0.5-0.5v0h1.5v-3.5c0-0.276 0.224-0.5 0.5-0.5v0h13c0.276 0 0.5 0.224 0.5 0.5v0 3.5h1v-6.175c-0.298 0.109-0.642 0.172-1 0.172-1.039 0-1.955-0.528-2.493-1.331l-0.007-0.011c-0.545 0.813-1.461 1.342-2.5 1.342s-1.955-0.528-2.493-1.331l-0.007-0.011c-0.545 0.813-1.461 1.342-2.5 1.342s-1.955-0.528-2.493-1.331l-0.007-0.011c-0.545 0.813-1.461 1.342-2.5 1.342s-1.955-0.528-2.493-1.331l-0.007-0.011c-0.545 0.813-1.461 1.342-2.5 1.342s-1.955-0.528-2.493-1.331l-0.007-0.011c-0.545 0.813-1.461 1.342-2.5 1.342-0.358 0-0.702-0.063-1.021-0.178l0.021 0.007v16.175h1v-11.5c0-0.276 0.224-0.5 0.5-0.5v0h7c0.276 0 0.5 0.224 0.5 0.5v0 11.5h9v-1h-7.5c-0.276 0-0.5-0.224-0.5-0.5v0z"></path>
<path d="M4.5 13.5v11h6v-11zM6.5 19.5h-1v-3h1z"></path>
<path d="M15.5 11.5h12v3h-12v-3z"></path>
<path d="M1.5 25.5h19v1h-19v-1z"></path>
<path d="M3.5 7.5c1.105 0 2-0.895 2-2v0-4h-4v4c0 1.105 0.895 2 2 2v0z"></path>
<path d="M13.5 7.5c1.105 0 2-0.895 2-2v0-4h-4v4c0 1.105 0.895 2 2 2v0z"></path>
<path d="M23.5 7.5c1.105 0 2-0.895 2-2v0-4h-4v4c0 1.105 0.895 2 2 2v0z"></path>
<path d="M21.5 23.5h1v7h-1v-7z"></path>
<path d="M8.5 7.5c1.105 0 2-0.895 2-2v0-4h-4v4c0 1.105 0.895 2 2 2v0z"></path>
<path d="M18.5 7.5c1.105 0 2-0.895 2-2v0-4h-4v4c0 1.105 0.895 2 2 2v0z"></path>
<path d="M19.5 17.5h1v1h-1v-1z"></path>
<path d="M23.5 25.5h7v1h-7v-1z"></path>
<path d="M13.5 22.5h17v-7h-17zM26 17c-0-0.006-0-0.013-0-0.020 0-0.226 0.15-0.418 0.357-0.479l0.004-0.001c0.042-0.013 0.091-0.020 0.141-0.020 0.178 0 0.334 0.093 0.423 0.233l0.001 0.002 1.575 2.5v-2.715h1v4.5c0 0.006 0 0.013 0 0.020 0 0.226-0.15 0.418-0.357 0.479l-0.004 0.001c-0.021 0.003-0.045 0.005-0.070 0.005s-0.049-0.002-0.073-0.005l0.003 0c-0 0-0.001 0-0.001 0-0.178 0-0.334-0.093-0.423-0.233l-0.001-0.002-1.575-2.5v2.735h-1zM22.5 17c0-0.276 0.224-0.5 0.5-0.5v0h2v1h-1.5v1h1.5v1h-1.5v1h1.5v1h-2c-0.276 0-0.5-0.224-0.5-0.5v0zM18.5 17c0-0.276 0.224-0.5 0.5-0.5v0h2c0.276 0 0.5 0.224 0.5 0.5v0 2c0 0.276-0.224 0.5-0.5 0.5v0h-1.5v2h-1zM14.5 17c0-0.276 0.224-0.5 0.5-0.5v0h2c0.276 0 0.5 0.224 0.5 0.5v0 4c0 0.276-0.224 0.5-0.5 0.5v0h-2c-0.276 0-0.5-0.224-0.5-0.5v0z"></path>
<path d="M26.5 1.5v4c0 1.105 0.895 2 2 2s2-0.895 2-2v0-4z"></path>
<path d="M15.5 17.5h1v3h-1v-3z"></path>
<path d="M23.5 23.5h6v1h-6v-1z"></path>
</symbol>
<symbol id="icon-supermarket" viewBox="0 0 32 32">
<path d="M28.998 8.991c-0.002-0.061-0.014-0.119-0.035-0.172l0.001 0.003c-0.006-0.015-0.013-0.027-0.020-0.041-0.009-0.023-0.019-0.042-0.029-0.060l0.001 0.002-1.703-2.555c-0.272-0.405-0.729-0.668-1.246-0.668-0.001 0-0.001 0-0.002 0h-0.465v-4c-0.001-0.828-0.672-1.499-1.5-1.5h-16c-0.828 0.001-1.499 0.672-1.5 1.5v4h-0.465c-0.001 0-0.001 0-0.002 0-0.518 0-0.974 0.263-1.243 0.663l-0.003 0.005-1.703 2.555c-0.009 0.016-0.019 0.035-0.027 0.055l-0.001 0.003c-0.007 0.014-0.014 0.026-0.020 0.041-0.020 0.050-0.033 0.108-0.034 0.168v0.001c0 0.003-0.002 0.006-0.002 0.009v6.5c-0 0.005-0 0.011-0 0.017 0 1.647 1.335 2.983 2.983 2.983 0.183 0 0.362-0.016 0.535-0.048l-0.018 0.003v12.045c0.001 0.828 0.672 1.499 1.5 1.5h16c0.828-0.001 1.499-0.672 1.5-1.5v-12.045c0.156 0.029 0.334 0.045 0.517 0.045 1.647 0 2.983-1.335 2.983-2.983 0-0.006-0-0.012-0-0.018v0.001-6.5c0-0.003-0.002-0.006-0.002-0.009zM21.261 1l-0.474 1.186c-0.075 0.186-0.254 0.314-0.462 0.314-0.001 0-0.001 0-0.002 0h-8.646c-0.001 0-0.001 0-0.002 0-0.209 0-0.387-0.129-0.461-0.311l-0.001-0.003-0.474-1.186zM7.5 1.5c0-0.276 0.224-0.5 0.5-0.5h1.661l0.623 1.557c0.225 0.557 0.761 0.943 1.388 0.943 0.002 0 0.003 0 0.005 0h8.646c0.001 0 0.003 0 0.005 0 0.626 0 1.163-0.386 1.384-0.933l0.004-0.010 0.623-1.557h1.661c0.276 0 0.5 0.224 0.5 0.5v4h-17zM5.619 6.723c0.091-0.135 0.243-0.223 0.415-0.223 0 0 0.001 0 0.001 0h19.93c0 0 0.001 0 0.001 0 0.172 0 0.325 0.088 0.414 0.221l0.001 0.002 1.185 1.777h-23.132zM23 15.5c0 1.105-0.895 2-2 2s-2-0.895-2-2v0-6h4zM18 15.5c0 1.105-0.895 2-2 2s-2-0.895-2-2v0-6h4zM13 15.5c0 1.105-0.895 2-2 2s-2-0.895-2-2v0-6h4zM4 15.5v-6h4v6c0 1.105-0.895 2-2 2s-2-0.895-2-2v0zM24.5 30.5c-0 0.276-0.224 0.5-0.5 0.5h-16c-0.276-0-0.5-0.224-0.5-0.5v-12.406c0.405-0.238 0.74-0.553 0.993-0.928l0.007-0.011c0.544 0.815 1.46 1.345 2.5 1.345s1.956-0.53 2.493-1.334l0.007-0.011c0.544 0.815 1.46 1.345 2.5 1.345s1.956-0.53 2.493-1.334l0.007-0.011c0.544 0.815 1.46 1.345 2.5 1.345s1.956-0.53 2.493-1.334l0.007-0.011c0.26 0.386 0.595 0.702 0.986 0.932l0.014 0.008zM28 15.5c0 1.105-0.895 2-2 2s-2-0.895-2-2v0-6h4zM16 19.5c-3.261 0-5.918 2.181-5.993 4.884-0.311 0.273-0.507 0.672-0.507 1.116 0 0.441 0.193 0.837 0.499 1.108l0.002 0.001v0.89c0.001 0.828 0.672 1.499 1.5 1.5h9c0.828-0.001 1.499-0.672 1.5-1.5v-0.89c0.307-0.273 0.5-0.669 0.5-1.11 0-0.444-0.196-0.843-0.505-1.114l-0.002-0.001c-0.075-2.704-2.732-4.884-5.993-4.884zM16 20.5c2.545 0 4.648 1.53 4.957 3.5h-9.913c0.309-1.97 2.412-3.5 4.957-3.5zM21 27.5c-0 0.276-0.224 0.5-0.5 0.5h-9c-0.276-0-0.5-0.224-0.5-0.5v-0.5h10zM21 26h-10c-0.276 0-0.5-0.224-0.5-0.5s0.224-0.5 0.5-0.5v0h10c0.276 0 0.5 0.224 0.5 0.5s-0.224 0.5-0.5 0.5v0z"></path>
</symbol>
<symbol id="icon-users" viewBox="0 0 32 32">
<path d="M8.456 19.335c-4.458 0.093-8.076 3.113-8.391 6.922h4.22l0.002-0.023c0.203-2.461 1.463-4.746 3.547-6.432 0.201-0.162 0.408-0.318 0.621-0.467zM10.139 11.723c0-0.544 0.058-1.072 0.165-1.576-0.499-0.271-1.053-0.423-1.636-0.423-2.204 0-3.99 2.151-3.99 4.804 0 2.573 1.679 4.672 3.789 4.798 0.949-0.661 2.006-1.179 3.131-1.539 0.238-0.308 0.441-0.655 0.605-1.031-1.255-1.17-2.064-2.991-2.064-5.034zM21.061 11.666c0-3.366-2.266-6.095-5.061-6.095s-5.061 2.729-5.061 6.095c0 3.016 1.82 5.522 4.211 6.008-5.386 0.358-9.678 4.089-10.064 8.755h21.828c-0.386-4.666-4.678-8.397-10.064-8.755 2.391-0.486 4.211-2.991 4.211-6.008zM27.321 14.701c0-2.654-1.786-4.805-3.99-4.805-0.583 0-1.136 0.153-1.635 0.423 0.108 0.504 0.165 1.032 0.165 1.576 0 2.043-0.809 3.865-2.065 5.033 0.164 0.376 0.367 0.723 0.605 1.032 1.125 0.36 2.183 0.878 3.131 1.538 2.111-0.125 3.79-2.225 3.79-4.798zM31.935 26.429c-0.315-3.809-3.933-6.828-8.391-6.922 0.212 0.148 0.419 0.304 0.621 0.466 2.084 1.686 3.344 3.971 3.548 6.431l0.002 0.023 4.22 0.001z"></path>
</symbol>
<symbol id="icon-users-2" viewBox="0 0 32 32">
<path d="M12 12c0-2.267 1.733-4 4-4s4 1.733 4 4c0 2.267-1.733 4-4 4s-4-1.733-4-4zM16 18.667c-6.133 0-8 4.4-8 4.4v2.267h16v-2.267c0 0-1.867-4.4-8-4.4z"></path>
<path d="M24.667 17.333c-1.6 0-2.8 0.4-3.733 1.067 3.067 1.467 4.267 4 4.267 4.267v0.133h5.467v-1.733c0-0.133-1.467-3.733-6-3.733z"></path>
<path d="M10.667 11.333c0 1.841-1.492 3.333-3.333 3.333s-3.333-1.492-3.333-3.333c0-1.841 1.492-3.333 3.333-3.333s3.333 1.492 3.333 3.333z"></path>
<path d="M7.333 17.333c1.6 0 2.8 0.4 3.733 1.067-3.067 1.467-4.267 4-4.267 4.267v0.133h-5.467v-1.733c0-0.133 1.467-3.733 6-3.733z"></path>
</symbol>
</defs>
</svg>
